#!OML:ASF I:\Actors\actors\Patient Classification 2\Patient 1\Session 1\actor1.ASF
:FULLY-SPECIFIED
:DEGREES
389
root -0.216127 18.7273 4.75495 11.2811 -26.1625 -2.43633
lowerback 29.1017 -7.31585 -13.6584
upperback 3.51586 -14.4661 -5.84963
thorax -10.0977 -6.29092 5.96713
lowerneck -21.3389 4.18198 -0.0849647
upperneck 11.5469 8.72086 -19.1474
head 8.14345 2.17811 -5.29095
rclavicle 5.56597e-014 -9.54166e-015
rhumerus -76.3905 -28.8319 -40.3671
rradius 84.5838
rwrist -58.084
rhand -8.18121 -40.0934
rfingers 7.12502
rthumb 17.7345 -69.3047
lclavicle 5.56597e-014 -9.54166e-015
lhumerus 7.72808 16.8373 38.5609
lradius 25.2345
lwrist -44.696
lhand -23.129 -17.5549
lfingers 7.12502
lthumb 3.31853 12.3991
rfemur 0 0 0
rtibia 0
rfoot 0 0
rtoes 0
lfemur -17.5197 18.0276 -14.9815
ltibia 28.9629
lfoot -22.2357 13.5007
ltoes -54.7368
390
root -0.230923 18.7281 4.75931 11.2935 -26.3741 -2.4257
lowerback 29.1171 -7.38045 -14.1134
upperback 3.43569 -14.7236 -5.99893
thorax -10.0912 -6.38958 6.10943
lowerneck -22.8294 4.42322 -0.327942
upperneck 11.8552 9.25599 -19.0644
head 8.5531 2.31428 -5.15244
rclavicle -2.44903e-013 -6.36111e-014
rhumerus -76.3617 -29.0532 -38.3004
rradius 87.2992
rwrist -59.9637
rhand -8.38668 -39.7075
rfingers 7.12502
rthumb 17.5367 -68.9365
lclavicle -2.44903e-013 -6.36111e-014
lhumerus 4.52145 17.3853 37.514
lradius 25.9043
lwrist -43.8075
lhand -24.6607 -19.7215
lfingers 7.12502
lthumb 1.8393 10.2503
rfemur 0 0 0
rtibia 0
rfoot 0 0
rtoes 0
lfemur -17.3777 17.9179 -14.9582
ltibia 28.8401
lfoot -22.3271 13.7669
ltoes -54.7886
391
root -0.246292 18.729 4.76382 11.3705 -26.5477 -2.43496
lowerback 28.9202 -7.44156 -14.401
upperback 3.38535 -14.8956 -6.22921
thorax -10.0201 -6.46864 6.01928
lowerneck -23.8208 4.50948 -0.517828
upperneck 11.7879 9.47428 -19.04
head 8.71858 2.35578 -5.07902
rclavicle 2.08326e-013 6.36111e-015
rhumerus -76.402 -29.2074 -36.1558
rradius 89.9562
rwrist -62.2042
rhand -8.31083 -38.7279
rfingers 7.12502
rthumb 17.6097 -67.9504
lclavicle 2.08326e-013 6.36111e-015
lhumerus 1.29065 16.8155 36.2969
lradius 26.6509
lwrist -42.3939
lhand -25.7973 -20.9327
lfingers 7.12502
lthumb 0.741478 9.04578
rfemur 0 0 0
rtibia 0
rfoot 0 0
rtoes 0
lfemur -17.2985 17.7152 -14.9237
ltibia 28.711
lfoot -22.4149 14.0689
ltoes -54.8123
392
root -0.26244 18.7299 4.76804 11.4894 -26.6944 -2.43989
lowerback 29.095 -7.38412 -14.7777
upperback 3.00344 -15.0475 -6.29449
thorax -10.4659 -6.45548 6.24332
lowerneck -24.2251 4.55753 -0.549537
upperneck 11.51 9.58242 -19.4119
head 8.7357 2.35986 -5.18333
rclavicle 1.79701e-013 6.36111e-014
rhumerus -76.4714 -28.8378 -33.4569
rradius 92.2901
rwrist -65.5438
rhand -7.72434 -36.9682
rfingers 7.12502
rthumb 18.1741 -66.1391
lclavicle 1.79701e-013 6.36111e-014
lhumerus -2.36858 15.2172 35.3266
lradius 27.4647
lwrist -40.1037
lhand -26.273 -22.2269
lfingers 7.12502
lthumb 0.28204 7.75271
rfemur 0 0 0
rtibia 0
rfoot 0 0
rtoes 0
lfemur -17.2872 17.6698 -14.9055
ltibia 28.5829
lfoot -22.4453 14.2075
ltoes -54.793
393
root -0.277966 18.7301 4.77308 11.6175 -26.8206 -2.37275
lowerback 28.7244 -7.36212 -15.0634
upperback 2.96286 -15.0873 -6.58172
thorax -10.3344 -6.48457 6.02205
lowerneck -24.7446 4.5749 -0.313677
upperneck 11.1754 9.52575 -19.5703
head 8.72858 2.32598 -5.28094
rclavicle -1.27222e-013 1.08139e-013
rhumerus -76.1645 -28.8659 -31.2186
rradius 94.942
rwrist -67.2742
rhand -8.00556 -36.199
rfingers 7.12502
rthumb 17.9035 -65.3949
lclavicle -1.27222e-013 1.08139e-013
lhumerus -5.61746 12.9897 34.4091
lradius 28.776
lwrist -35.1229
lhand -23.9061 -23.7695
lfingers 7.12502
lthumb 2.56803 6.19481
rfemur 0 0 0
rtibia 0
rfoot 0 0
rtoes 0
lfemur -17.3513 17.9391 -14.995
ltibia 28.4486
lfoot -22.3362 14.1015
ltoes -54.8344
394
root -0.292656 18.7304 4.77853 11.7402 -26.9418 -2.26124
lowerback 28.68 -7.28881 -15.4113
upperback 2.70811 -15.1708 -6.78728
thorax -10.5798 -6.47339 6.00898
lowerneck -25.474 4.60982 -0.181538
upperneck 11.249 9.60721 -19.6639
head 8.90272 2.31299 -5.32901
rclavicle 6.20208e-014 -7.63333e-014
rhumerus -75.6127 -28.5953 -28.6826
rradius 97.4162
rwrist -68.8251
rhand -7.73947 -35.75
rfingers 7.12502
rthumb 18.1595 -64.9223
lclavicle 6.20208e-014 -7.63333e-014
lhumerus -9.48295 10.4308 33.7387
lradius 30.0471
lwrist -31.6315
lhand -28.782 -25.8994
lfingers 7.12502
lthumb -2.14115 4.06956
rfemur 0 0 0
rtibia 0
rfoot 0 0
rtoes 0
lfemur -17.4191 18.0532 -15.1366
ltibia 28.3046
lfoot -22.301 14.0757
ltoes -54.7496
395
root -0.307706 18.7315 4.78329 11.8389 -27.0614 -2.18483
lowerback 29.3112 -7.08557 -15.9407
upperback 1.70171 -15.3356 -6.62797
thorax -11.0831 -6.40449 6.30181
lowerneck -26.1785 4.68119 -0.113742
upperneck 11.5046 9.81018 -19.848
head 9.15484 2.32817 -5.38493
rclavicle 1.00187e-013 -3.18055e-015
rhumerus -74.6468 -28.1105 -25.7391
rradius 99.6975
rwrist -70.1557
rhand -7.74304 -37.1465
rfingers 7.12502
rthumb 18.1561 -66.3191
lclavicle 1.00187e-013 -3.18055e-015
lhumerus -13.8747 6.90553 33.672
lradius 32.6835
lwrist -24.582
lhand -27.8499 -27.136
lfingers 7.12502
lthumb -1.24096 2.84012
rfemur 0 0 0
rtibia 0
rfoot 0 0
rtoes 0
lfemur -17.4191 17.8689 -15.211
ltibia 28.1596
lfoot -22.3902 14.2929
ltoes -54.6633
396
root -0.322336 18.7318 4.78813 11.9271 -27.1501 -2.1435
lowerback 29.3812 -7.00216 -16.2007
upperback 1.45952 -15.4151 -6.87273
thorax -11.3869 -6.38309 6.23011
lowerneck -26.7055 4.78019 0.293658
upperneck 11.4157 9.83647 -19.923
head 9.24164 2.33188 -5.47605
rclavicle -3.33958e-014 -4.13472e-014
rhumerus -73.272 -28.5003 -23.0458
rradius 101.922
rwrist -71.7435
rhand -7.43691 -33.9322
rfingers 7.12502
rthumb 18.4506 -63.0772
lclavicle -3.33958e-014 -4.13472e-014
lhumerus -17.9464 3.12599 33.6952
lradius 35.3444
lwrist -18.4293
lhand -27.9794 -27.6016
lfingers 7.12502
lthumb -1.36597 2.37378
rfemur 0 0 0
rtibia 0
rfoot 0 0
rtoes 0
lfemur -17.3979 17.7084 -15.239
ltibia 28.0193
lfoot -22.4664 14.5145
ltoes -54.7189
397
root -0.333604 18.7315 4.79296 12.0609 -27.1738 -2.10151
lowerback 29.0344 -6.98298 -16.389
upperback 1.49125 -15.4258 -7.2036
thorax -11.2433 -6.4079 5.92478
lowerneck -27.0304 4.88448 0.831251
upperneck 11.0243 9.75905 -20.0605
head 9.18709 2.32264 -5.61915
rclavicle -1.11319e-013 2.22639e-014
rhumerus -71.4523 -29.574 -20.542
rradius 103.977
rwrist -73.0775
rhand -7.66601 -33.6629
rfingers 7.12502
rthumb 18.2302 -62.8286
lclavicle -1.11319e-013 2.22639e-014
lhumerus -21.6839 -0.593889 34.0214
lradius 37.8002
lwrist -13.1601
lhand -29.6937 -28.0257
lfingers 7.12502
lthumb -3.02168 1.93261
rfemur 0 0 0
rtibia 0
rfoot 0 0
rtoes 0
lfemur -17.4471 17.53 -15.2838
ltibia 27.8734
lfoot -22.5234 14.6918
ltoes -54.729
